<?xml version="1.0" encoding="UTF-8" standalone="no"?>
<!DOCTYPE svg PUBLIC "-//W3C//DTD SVG 1.1//EN" "http://www.w3.org/Graphics/SVG/1.1/DTD/svg11.dtd">
<svg width="100%" height="100%" viewBox="0 0 470 443" version="1.1" xmlns="http://www.w3.org/2000/svg" xmlns:xlink="http://www.w3.org/1999/xlink" xml:space="preserve" xmlns:serif="http://www.serif.com/" style="fill-rule:evenodd;clip-rule:evenodd;stroke-linejoin:round;stroke-miterlimit:2;">
    <g transform="matrix(1,0,0,1,-705.276,-49.3334)">
        <g transform="matrix(1,0,0,1,-511.683,-132.869)">
            <g transform="matrix(3.44532,0,0,3.44532,1216.96,182.202)">
                <rect x="0" y="0" width="136.262" height="128.409" style="fill:none;fill-rule:nonzero;"/>
                <g transform="matrix(0.055923,0,0,0.0549785,-10.6909,55.4846)">
                    <path d="M589,815C576,818 562,821 549,824C460,851 375,892 300,946C268,971 249,1008 248,1048L248,1304L645,1304L589,815Z" style="fill-rule:nonzero;"/>
                </g>
                <g transform="matrix(0.055923,0,0,0.0549785,-10.6909,55.4846)">
                    <path d="M1016,488C1016,630 902,744 760,744C619,744 504,630 504,488C504,347 619,232 760,232C902,232 1016,347 1016,488" style="fill-rule:nonzero;"/>
                </g>
                <g transform="matrix(0.055923,0,0,0.0549785,-10.6909,55.4846)">
                    <path d="M1221,946C1151,888 1061,850 972,824C959,821 946,817 932,814L876,1304L1272,1304L1272,1048C1272,1008 1253,971 1221,946ZM1160,1128L1000,1128L1000,1096L1160,1096L1160,1128Z" style="fill-rule:nonzero;"/>
                </g>
                <g transform="matrix(0.055923,0,0,0.0549785,-10.6909,55.4846)">
                    <path d="M809,888L840,792L680,792L712,888L809,888Z" style="fill-rule:nonzero;"/>
                </g>
                <g transform="matrix(0.055923,0,0,0.0549785,-10.6909,55.4846)">
                    <path d="M714,920L692,1236L760,1304L829,1236L807,920L714,920Z" style="fill-rule:nonzero;"/>
                </g>
            </g>
        </g>
        <g transform="matrix(1,0,0,1,-511.683,-132.869)">
            <g transform="matrix(3.44532,0,0,3.44532,1216.96,182.202)">
                <rect x="0" y="0" width="136.262" height="128.409" style="fill:none;"/>
                <clipPath id="_clip1">
                    <rect x="0" y="0" width="136.262" height="128.409"/>
                </clipPath>
                <g clip-path="url(#_clip1)">
                    <g transform="matrix(0.0270362,0,0,0.0265748,0,0)">
                        <path d="M3721,1649C3714,1704 3668,1745 3614,1745C3591,1745 3568,1737 3550,1723C3577,1715 3605,1703 3636,1690C3666,1677 3696,1663 3721,1649ZM3615,1512C3646,1512 3677,1527 3697,1552C3726,1542 3756,1536 3786,1534C3800,1534 3810,1534 3813,1540C3821,1562 3737,1618 3629,1665C3569,1693 3506,1711 3441,1718C3427,1718 3418,1715 3417,1710C3411,1695 3447,1664 3506,1631L3506,1624C3506,1563 3554,1513 3614,1512L3615,1512ZM2873,1211C2733,1250 2600,1311 2479,1391C2428,1428 2393,1483 2383,1546L2341,1884L4115,1884L4074,1546C4063,1484 4029,1429 3979,1391C3867,1306 3726,1250 3584,1211C3482,1290 3357,1331 3228,1328C3100,1331 2975,1290 2873,1211ZM3732,495C3748,546 3756,599 3756,652L3756,845C3757,967 3710,1085 3626,1172C3748,1206 3865,1259 3972,1328L3972,737C3972,603 3864,495 3732,495ZM2725,495C2593,495 2485,603 2485,737L2485,1330C2593,1262 2710,1210 2831,1173C2746,1085 2699,968 2701,845L2701,652C2701,599 2709,546 2725,495ZM3228,476C3464,476 3632,459 3623,736L3623,751L3624,826C3624,849 3621,871 3617,894C3612,918 3605,943 3595,966L3442,966C3433,951 3417,942 3400,942L3352,942C3326,942 3304,964 3304,990C3304,1017 3326,1038 3352,1038L3400,1038C3417,1038 3433,1029 3442,1014L3571,1014C3499,1127 3374,1193 3241,1191L3216,1191C3040,1191 2874,1078 2840,894C2837,872 2834,849 2833,826L2833,736C2825,459 2993,476 3228,476ZM3228,193C2965,193 2749,387 2749,652L2749,845C2749,1111 2965,1280 3228,1280C3492,1280 3708,1111 3708,845L3708,652C3708,387 3493,193 3228,193ZM2975,-6C3266,-25 3549,130 3687,400C3877,334 4088,363 4254,480C4415,596 4515,784 4515,988L4556,988C4829,988 5048,1217 5048,1492C5048,1767 4825,1992 4552,1992L2151,1992L2151,1988C1924,1976 1717,1838 1618,1630C1522,1421 1547,1176 1684,988C1825,805 2052,709 2280,746L2280,738C2280,392 2520,92 2851,13C2892,3 2934,-3 2975,-6Z"/>
                    </g>
                </g>
            </g>
        </g>
        <g transform="matrix(1,0,0,1,-511.683,-132.869)">
            <g transform="matrix(3.44532,0,0,3.44532,1216.96,182.202)">
                <rect x="0" y="0" width="136.262" height="128.409" style="fill:none;fill-rule:nonzero;"/>
                <g transform="matrix(0.055923,0,0,0.0549785,-10.6909,55.4846)">
                    <path d="M589,815C576,818 562,821 549,824C460,851 375,892 300,946C268,971 249,1008 248,1048L248,1304L645,1304L589,815Z" style="fill-rule:nonzero;"/>
                </g>
                <g transform="matrix(0.055923,0,0,0.0549785,-10.6909,55.4846)">
                    <path d="M1016,488C1016,630 902,744 760,744C619,744 504,630 504,488C504,347 619,232 760,232C902,232 1016,347 1016,488" style="fill-rule:nonzero;"/>
                </g>
                <g transform="matrix(0.055923,0,0,0.0549785,-10.6909,55.4846)">
                    <path d="M1221,946C1151,888 1061,850 972,824C959,821 946,817 932,814L876,1304L1272,1304L1272,1048C1272,1008 1253,971 1221,946ZM1160,1128L1000,1128L1000,1096L1160,1096L1160,1128Z" style="fill-rule:nonzero;"/>
                </g>
                <g transform="matrix(0.055923,0,0,0.0549785,-10.6909,55.4846)">
                    <path d="M809,888L840,792L680,792L712,888L809,888Z" style="fill-rule:nonzero;"/>
                </g>
                <g transform="matrix(0.055923,0,0,0.0549785,-10.6909,55.4846)">
                    <path d="M714,920L692,1236L760,1304L829,1236L807,920L714,920Z" style="fill-rule:nonzero;"/>
                </g>
            </g>
        </g>
        <g transform="matrix(1,0,0,1,-511.683,-132.869)">
            <g transform="matrix(1,0,0,1,1141.09,89.5002)">
                <circle cx="281.969" cy="358.184" r="15.347"/>
            </g>
        </g>
        <g transform="matrix(1,0,0,1,-511.683,-132.869)">
            <g transform="matrix(1,0,0,1,1130.2,79.5992)">
                <circle cx="353.008" cy="322.293" r="27.97"/>
            </g>
        </g>
    </g>
</svg>
