<?xml version="1.0" encoding="UTF-8" standalone="no"?>
<!DOCTYPE svg PUBLIC "-//W3C//DTD SVG 1.1//EN" "http://www.w3.org/Graphics/SVG/1.1/DTD/svg11.dtd">
<svg width="100%" height="100%" viewBox="0 0 382 191" version="1.1" xmlns="http://www.w3.org/2000/svg" xmlns:xlink="http://www.w3.org/1999/xlink" xml:space="preserve" xmlns:serif="http://www.serif.com/" style="fill-rule:evenodd;clip-rule:evenodd;stroke-linejoin:round;stroke-miterlimit:2;">
    <g transform="matrix(1,0,0,1,-17.9633,-241.053)">
        <g transform="matrix(0.664948,0,0,0.461912,-758.765,154.78)">
            <g transform="matrix(1.50388,0,0,2.16491,942.522,-101.16)">
                <g>
                    <g transform="matrix(1,0,0,1,-1.72563,1.59162e-12)">
                        <rect x="426.226" y="178" width="31" height="131" style="fill:rgb(132,90,187);"/>
                    </g>
                    <g transform="matrix(-1,0,0,1,682,1.02887e-11)">
                        <path d="M334,164L150,164C150,144.273 178.317,133 233.044,133C334,133 334,133 334,133L334,164Z" style="fill:rgb(132,90,187);"/>
                    </g>
                </g>
                <path d="M286,309L173.044,309C160.317,309 150,298.683 150,285.956L150,178L181,178L181,265.075C181,268.503 182.362,271.791 184.786,274.214C187.209,276.638 190.497,278 193.925,278L270.688,278L286,309Z" style="fill:rgb(132,90,187);"/>
                <path d="M334,164L150,164C150,144.273 183.317,133 233.044,133C334,133 334,133 334,133L334,164Z" style="fill:rgb(132,90,187);"/>
                <path d="M400,323L334,323L281.376,265.106L281.376,248.106L400,323ZM334,281.33L302,261.127L302,178L334,178L334,281.33Z" style="fill:rgb(132,90,187);"/>
            </g>
        </g>
    </g>
</svg>
