<svg viewBox="0 0 837 154" xmlns="http://www.w3.org/2000/svg" fill-rule="evenodd" clip-rule="evenodd" stroke-linejoin="round" stroke-miterlimit="2"><path d="M365.44 103.633h-11.815v36.613h-4.796v-36.613h-11.814v-4.328h28.425v4.328zm35.79 36.613h-5.732l-6.843-11.463c-.643-1.111-1.228-1.989-1.813-2.749a10.599 10.599 0 00-1.813-1.813c-.643-.527-1.287-.819-2.047-1.053-.702-.234-1.462-.35-2.398-.35h-3.919v17.428h-4.796v-40.94h12.224c1.755 0 3.45.233 4.913.643 1.52.468 2.866 1.17 3.977 2.047a9.694 9.694 0 012.632 3.45c.585 1.346.936 2.925.936 4.738 0 1.462-.234 2.749-.643 3.919-.468 1.228-1.053 2.28-1.872 3.216-.76.936-1.696 1.697-2.807 2.398a14.76 14.76 0 01-3.802 1.521v.117a7.769 7.769 0 011.813 1.053c.526.35.994.819 1.462 1.345.41.526.878 1.17 1.345 1.813.41.702.936 1.462 1.463 2.398l7.72 12.282zm-24.565-36.613v14.856h6.492c1.229 0 2.34-.175 3.334-.526.994-.41 1.93-.878 2.632-1.58a7.285 7.285 0 001.755-2.456 8.67 8.67 0 00.643-3.334c0-2.164-.702-3.86-2.164-5.088-1.404-1.228-3.45-1.872-6.141-1.872h-6.55zm61.888 36.613h-5.323l-4.328-11.463h-17.37l-4.094 11.463h-5.323l15.675-40.94h4.971l15.792 40.94zm-11.23-15.791l-6.433-17.43c-.234-.584-.41-1.52-.644-2.748h-.117a16.05 16.05 0 01-.643 2.749l-6.375 17.429h14.212zm50.242 15.791h-5.849l-21.114-32.635c-.526-.82-.936-1.697-1.286-2.574h-.176c.176.877.234 2.749.234 5.615v29.594h-4.796v-40.94h6.2l20.529 32.109c.819 1.345 1.403 2.28 1.637 2.749h.117c-.175-1.17-.292-3.217-.292-6.024V99.305h4.796v40.941zm8.835-1.637v-5.674a8.512 8.512 0 002.34 1.521c.876.468 1.87.877 2.865 1.17.994.35 1.989.585 2.983.76.994.176 1.93.234 2.807.234 2.983 0 5.147-.526 6.61-1.637 1.461-1.112 2.163-2.69 2.163-4.738 0-1.111-.234-2.047-.702-2.866-.467-.819-1.17-1.579-1.988-2.28a27.558 27.558 0 00-3.041-1.93c-1.17-.586-2.457-1.23-3.802-1.931-1.462-.76-2.749-1.462-3.977-2.222a14.114 14.114 0 01-3.276-2.457c-.877-.877-1.637-1.872-2.164-3.041-.467-1.112-.76-2.457-.76-3.977 0-1.872.41-3.51 1.228-4.855.82-1.404 1.872-2.515 3.217-3.45 1.345-.878 2.866-1.521 4.562-1.99a22.271 22.271 0 015.206-.643c4.035 0 7.018.468 8.831 1.463v5.38c-2.398-1.637-5.498-2.514-9.3-2.514a14.52 14.52 0 00-3.158.35c-1.052.234-1.988.585-2.807 1.053a6.958 6.958 0 00-1.989 1.93c-.526.76-.76 1.755-.76 2.866 0 1.053.175 1.93.585 2.69s.994 1.463 1.754 2.106c.76.643 1.638 1.228 2.75 1.813 1.11.585 2.339 1.228 3.801 1.93a88.792 88.792 0 014.153 2.281 18.072 18.072 0 013.45 2.69 11.55 11.55 0 012.398 3.218c.527 1.17.82 2.514.82 4.035 0 2.047-.352 3.743-1.17 5.147-.76 1.404-1.872 2.515-3.217 3.392-1.346.878-2.866 1.52-4.62 1.93-1.755.351-3.569.585-5.557.585-.643 0-1.404-.058-2.398-.175-.936-.117-1.93-.234-2.866-.468-.994-.176-1.93-.41-2.866-.702-.877-.35-1.579-.643-2.105-.994zm53.764-34.976h-15.967v14.154h14.797v4.328h-14.797v18.131h-4.796v-40.94h20.763v4.327zm24.289 37.315c-5.79 0-10.47-1.93-13.979-5.732-3.45-3.86-5.205-8.831-5.205-14.972 0-6.55 1.754-11.815 5.322-15.733 3.568-3.919 8.422-5.908 14.563-5.908 5.615 0 10.177 1.93 13.628 5.732 3.45 3.802 5.205 8.773 5.205 14.914 0 6.668-1.754 11.99-5.322 15.85-3.51 3.92-8.247 5.85-14.212 5.85zm.35-38.016c-4.327 0-7.778 1.579-10.469 4.679-2.69 3.1-4.035 7.193-4.035 12.223 0 5.03 1.286 9.124 3.918 12.166 2.632 3.1 6.025 4.62 10.236 4.62 4.503 0 8.012-1.462 10.644-4.386 2.574-2.925 3.86-7.019 3.86-12.341 0-5.381-1.228-9.592-3.743-12.516-2.515-2.925-6.024-4.445-10.41-4.445zm56.611 37.314h-5.732l-6.843-11.463c-.643-1.111-1.228-1.989-1.813-2.749a10.599 10.599 0 00-1.813-1.813c-.644-.527-1.287-.819-2.047-1.053-.702-.234-1.463-.35-2.398-.35h-3.919v17.428h-4.796v-40.94h12.224c1.755 0 3.45.233 4.913.643 1.52.468 2.866 1.17 3.977 2.047a9.694 9.694 0 012.632 3.45c.585 1.346.936 2.925.936 4.738 0 1.462-.234 2.749-.644 3.919-.468 1.228-1.052 2.28-1.871 3.216-.76.936-1.696 1.697-2.808 2.398a14.76 14.76 0 01-3.801 1.521v.117a7.769 7.769 0 011.813 1.053c.526.35.994.819 1.462 1.345.41.526.877 1.17 1.345 1.813.41.702.936 1.462 1.462 2.398l7.72 12.282zm-24.565-36.613v14.856h6.492c1.228 0 2.34-.175 3.334-.526.994-.41 1.93-.878 2.632-1.58a7.285 7.285 0 001.754-2.456 8.67 8.67 0 00.644-3.334c0-2.164-.702-3.86-2.164-5.088-1.404-1.228-3.451-1.872-6.141-1.872h-6.551zm71.947 36.613H664v-27.489c0-2.164.117-4.796.41-7.954h-.117c-.468 1.872-.877 3.158-1.228 3.977l-13.979 31.466h-2.34l-13.978-31.232c-.41-.936-.819-2.34-1.228-4.21h-.117c.175 1.637.234 4.327.234 8.012v27.43h-4.62v-40.94h6.316l12.575 28.541c.994 2.223 1.579 3.86 1.871 4.913h.176c.819-2.223 1.462-3.919 1.988-5.03l12.81-28.425h6.023v40.941zm42.46 0h-5.322l-4.328-11.463h-17.37l-4.095 11.463h-5.322l15.674-40.94h4.972l15.791 40.94zm-11.23-15.791l-6.433-17.43c-.234-.584-.41-1.52-.643-2.748h-.117a16.05 16.05 0 01-.643 2.749l-6.376 17.429h14.213zm37.268-20.822h-11.815v36.613h-4.796v-36.613H708.87v-4.328h28.425v4.328zm6.433-4.328h4.796v40.941h-4.796zm32.056 41.643c-5.79 0-10.47-1.93-13.979-5.732-3.45-3.86-5.205-8.831-5.205-14.972 0-6.55 1.755-11.815 5.322-15.733 3.568-3.919 8.423-5.908 14.564-5.908 5.615 0 10.177 1.93 13.627 5.732 3.451 3.802 5.206 8.773 5.206 14.914 0 6.668-1.755 11.99-5.323 15.85-3.509 3.92-8.246 5.85-14.212 5.85zm.35-38.016c-4.327 0-7.778 1.579-10.468 4.679-2.69 3.1-4.036 7.193-4.036 12.223 0 5.03 1.287 9.124 3.919 12.166 2.632 3.1 6.024 4.62 10.235 4.62 4.503 0 8.013-1.462 10.645-4.386 2.573-2.925 3.86-7.019 3.86-12.341 0-5.381-1.228-9.592-3.743-12.516-2.515-2.925-6.025-4.445-10.411-4.445zm60.239 37.314h-5.85l-21.113-32.635c-.526-.82-.936-1.697-1.287-2.574h-.175c.175.877.234 2.749.234 5.615v29.594h-4.796v-40.94h6.2l20.529 32.109c.818 1.345 1.403 2.28 1.637 2.749h.117c-.175-1.17-.292-3.217-.292-6.024V99.305h4.796v40.941zM364.485 75.971c-8.082 0-14.71-2.586-19.801-7.84-5.092-5.334-7.679-12.204-7.679-20.69 0-8.891 2.587-16.165 7.76-21.661 5.172-5.577 12.042-8.325 20.61-8.325 8.082 0 14.628 2.667 19.559 7.92 5.01 5.254 7.516 12.286 7.516 20.934 0 8.89-2.586 16.003-7.759 21.499-.162.162-.323.404-.485.566-.162.161-.323.323-.566.485l14.387 13.74h-17.862L372.648 75c-2.505.647-5.172.97-8.163.97zm.566-47.524c-4.445 0-8.001 1.697-10.669 5.011-2.667 3.395-3.96 7.84-3.96 13.336 0 5.577 1.293 10.022 3.96 13.255 2.668 3.314 6.062 4.93 10.346 4.93 4.364 0 7.84-1.616 10.426-4.768 2.586-3.152 3.88-7.598 3.88-13.175 0-5.819-1.213-10.426-3.718-13.74-2.506-3.232-5.9-4.849-10.265-4.849zM462.481 53.353c0 16.973-7.92 25.46-23.762 25.46-15.356 0-23.034-8.245-23.034-24.894V21.266h12.77v32.815c0 9.133 3.556 13.74 10.75 13.74 7.03 0 10.506-4.446 10.506-13.256V21.266h12.77v32.087zM537.27 78.337h-13.902l-4.04-12.609h-20.126l-3.96 12.609h-13.82l20.61-56.577h15.113l20.125 56.577zm-20.852-22.388l-6.062-18.994c-.485-1.455-.808-3.152-.97-5.092h-.323c-.081 1.617-.485 3.314-.97 4.93L501.95 55.95h14.468zM609.712 78.337H596.86l-23.358-35.563c-1.374-2.101-2.263-3.637-2.829-4.687h-.162c.243 2.02.324 5.01.324 9.133v31.117h-12.043V21.76h13.74l22.469 34.431c1.05 1.536 1.94 3.071 2.829 4.607h.161c-.242-1.293-.323-3.88-.323-7.759V21.76h12.043v56.577zM676.893 32.106h-16.165v46.23h-12.77v-46.23h-16.084V21.76h45.019v10.346zM745.119 53.353c0 16.973-7.921 25.46-23.762 25.46-15.357 0-23.035-8.245-23.035-24.894V21.266h12.77v32.815c0 9.133 3.556 13.74 10.75 13.74 7.031 0 10.507-4.446 10.507-13.256V21.266h12.77v32.087zM836.392 78.337h-12.608V44.472c0-3.637.162-7.679.485-12.124h-.323c-.647 3.476-1.213 5.981-1.778 7.517l-13.255 38.472h-10.427L784.99 40.269c-.323-1.05-.97-3.637-1.778-7.92h-.324c.324 5.576.485 10.506.485 14.71v31.278h-11.476V21.76h18.67l11.557 33.542c.89 2.667 1.617 5.334 2.021 8.082h.242c.728-3.152 1.455-5.819 2.264-8.163l11.557-33.46h18.185v56.576z" fill="#170233" fill-rule="nonzero"/><path fill="#170233" d="M222.325 36.445h25.108v106.101h-25.108zm-61.96-11.339h149.027c0-15.977-22.935-25.108-67.26-25.108h-81.767v25.108zm-50.215 117.44H18.663C8.355 142.546 0 134.19 0 123.882V36.445h25.108v70.525a10.466 10.466 0 0010.469 10.468h62.172l12.402 25.108zm38.876-117.44H0C0 9.13 26.984-.002 67.26-.002h81.767v25.108zm53.456 128.779h-53.456l-42.621-46.89V93.226l96.077 60.66zm-53.456-33.75l-25.917-16.363V36.445h25.917v83.69z"/></svg>