<?xml version="1.0" encoding="UTF-8" standalone="no"?>
<!DOCTYPE svg PUBLIC "-//W3C//DTD SVG 1.1//EN" "http://www.w3.org/Graphics/SVG/1.1/DTD/svg11.dtd">
<svg width="100%" height="100%" viewBox="0 0 339 21" version="1.1" xmlns="http://www.w3.org/2000/svg" xmlns:xlink="http://www.w3.org/1999/xlink" xml:space="preserve" xmlns:serif="http://www.serif.com/" style="fill-rule:evenodd;clip-rule:evenodd;stroke-linejoin:round;stroke-miterlimit:2;">
    <g transform="matrix(1,0,0,1,-143.968,-674.852)">
        <g transform="matrix(0.343164,0,0,0.258834,70.2434,487.536)">
            <g transform="matrix(56.8241,0,0,75.3378,715.209,790.418)">
                <path d="M0.506,-0.626L0.304,-0.626L0.304,0L0.222,0L0.222,-0.626L0.02,-0.626L0.02,-0.7L0.506,-0.7L0.506,-0.626Z" style="fill:white;fill-rule:nonzero;"/>
            </g>
        </g>
        <g transform="matrix(0.343164,0,0,0.258834,70.2434,487.536)">
            <g transform="matrix(56.8241,0,0,75.3378,744.98,790.418)">
                <path d="M0.594,0L0.496,0L0.379,-0.196C0.368,-0.215 0.358,-0.23 0.348,-0.243C0.338,-0.256 0.327,-0.266 0.317,-0.274C0.306,-0.283 0.295,-0.288 0.282,-0.292C0.27,-0.296 0.257,-0.298 0.241,-0.298L0.174,-0.298L0.174,0L0.092,0L0.092,-0.7L0.301,-0.7C0.331,-0.7 0.36,-0.696 0.385,-0.689C0.411,-0.681 0.434,-0.669 0.453,-0.654C0.472,-0.638 0.487,-0.619 0.498,-0.595C0.508,-0.572 0.514,-0.545 0.514,-0.514C0.514,-0.489 0.51,-0.467 0.503,-0.447C0.495,-0.426 0.485,-0.408 0.471,-0.392C0.458,-0.376 0.442,-0.363 0.423,-0.351C0.404,-0.34 0.382,-0.331 0.358,-0.325L0.358,-0.323C0.37,-0.318 0.38,-0.312 0.389,-0.305C0.398,-0.299 0.406,-0.291 0.414,-0.282C0.421,-0.273 0.429,-0.262 0.437,-0.251C0.444,-0.239 0.453,-0.226 0.462,-0.21L0.594,0ZM0.174,-0.626L0.174,-0.372L0.285,-0.372C0.306,-0.372 0.325,-0.375 0.342,-0.381C0.359,-0.388 0.375,-0.396 0.387,-0.408C0.4,-0.42 0.41,-0.434 0.417,-0.45C0.424,-0.467 0.428,-0.486 0.428,-0.507C0.428,-0.544 0.416,-0.573 0.391,-0.594C0.367,-0.615 0.332,-0.626 0.286,-0.626L0.174,-0.626Z" style="fill:white;fill-rule:nonzero;"/>
            </g>
        </g>
        <g transform="matrix(0.343164,0,0,0.258834,70.2434,487.536)">
            <g transform="matrix(56.8241,0,0,75.3378,778.969,790.418)">
                <path d="M0.634,0L0.543,0L0.469,-0.196L0.172,-0.196L0.102,0L0.011,0L0.279,-0.7L0.364,-0.7L0.634,0ZM0.442,-0.27L0.332,-0.568C0.328,-0.578 0.325,-0.594 0.321,-0.615L0.319,-0.615C0.316,-0.595 0.312,-0.58 0.308,-0.568L0.199,-0.27L0.442,-0.27Z" style="fill:white;fill-rule:nonzero;"/>
            </g>
        </g>
        <g transform="matrix(0.343164,0,0,0.258834,70.2434,487.536)">
            <g transform="matrix(56.8241,0,0,75.3378,815.622,790.418)">
                <path d="M0.656,0L0.556,0L0.195,-0.558C0.186,-0.572 0.179,-0.587 0.173,-0.602L0.17,-0.602C0.173,-0.587 0.174,-0.555 0.174,-0.506L0.174,0L0.092,0L0.092,-0.7L0.198,-0.7L0.549,-0.151C0.563,-0.128 0.573,-0.112 0.577,-0.104L0.579,-0.104C0.576,-0.124 0.574,-0.159 0.574,-0.207L0.574,-0.7L0.656,-0.7L0.656,0Z" style="fill:white;fill-rule:nonzero;"/>
            </g>
        </g>
        <g transform="matrix(0.343164,0,0,0.258834,70.2434,487.536)">
            <g transform="matrix(56.8241,0,0,75.3378,858.129,790.418)">
                <path d="M0.059,-0.028L0.059,-0.125C0.07,-0.115 0.083,-0.106 0.099,-0.099C0.114,-0.091 0.131,-0.084 0.148,-0.079C0.165,-0.073 0.182,-0.069 0.199,-0.066C0.216,-0.063 0.232,-0.062 0.247,-0.062C0.298,-0.062 0.335,-0.071 0.36,-0.09C0.385,-0.109 0.397,-0.136 0.397,-0.171C0.397,-0.19 0.393,-0.206 0.385,-0.22C0.377,-0.234 0.365,-0.247 0.351,-0.259C0.336,-0.27 0.319,-0.281 0.299,-0.292C0.279,-0.302 0.257,-0.313 0.234,-0.325C0.209,-0.338 0.187,-0.35 0.166,-0.363C0.144,-0.375 0.126,-0.389 0.11,-0.405C0.095,-0.42 0.082,-0.437 0.073,-0.457C0.065,-0.476 0.06,-0.499 0.06,-0.525C0.06,-0.557 0.067,-0.585 0.081,-0.608C0.095,-0.632 0.113,-0.651 0.136,-0.667C0.159,-0.682 0.185,-0.693 0.214,-0.701C0.243,-0.708 0.273,-0.712 0.303,-0.712C0.372,-0.712 0.423,-0.704 0.454,-0.687L0.454,-0.595C0.413,-0.623 0.36,-0.638 0.295,-0.638C0.277,-0.638 0.259,-0.636 0.241,-0.632C0.223,-0.628 0.207,-0.622 0.193,-0.614C0.179,-0.605 0.168,-0.594 0.159,-0.581C0.15,-0.568 0.146,-0.551 0.146,-0.532C0.146,-0.514 0.149,-0.499 0.156,-0.486C0.163,-0.473 0.173,-0.461 0.186,-0.45C0.199,-0.439 0.214,-0.429 0.233,-0.419C0.252,-0.409 0.273,-0.398 0.298,-0.386C0.323,-0.373 0.347,-0.36 0.369,-0.347C0.392,-0.333 0.411,-0.318 0.428,-0.301C0.445,-0.285 0.459,-0.266 0.469,-0.246C0.478,-0.226 0.483,-0.203 0.483,-0.177C0.483,-0.142 0.477,-0.113 0.463,-0.089C0.45,-0.065 0.431,-0.046 0.408,-0.031C0.385,-0.016 0.359,-0.005 0.329,0.002C0.299,0.008 0.268,0.012 0.234,0.012C0.223,0.012 0.21,0.011 0.193,0.009C0.177,0.007 0.16,0.005 0.144,0.001C0.127,-0.002 0.111,-0.006 0.095,-0.011C0.08,-0.017 0.068,-0.022 0.059,-0.028Z" style="fill:white;fill-rule:nonzero;"/>
            </g>
        </g>
        <g transform="matrix(0.343164,0,0,0.258834,70.2434,487.536)">
            <g transform="matrix(56.8241,0,0,75.3378,888.317,790.418)">
                <path d="M0.447,-0.626L0.174,-0.626L0.174,-0.384L0.427,-0.384L0.427,-0.31L0.174,-0.31L0.174,0L0.092,0L0.092,-0.7L0.447,-0.7L0.447,-0.626Z" style="fill:white;fill-rule:nonzero;"/>
            </g>
        </g>
        <g transform="matrix(0.343164,0,0,0.258834,70.2434,487.536)">
            <g transform="matrix(56.8241,0,0,75.3378,916.063,790.418)">
                <path d="M0.374,0.012C0.275,0.012 0.195,-0.021 0.135,-0.086C0.076,-0.152 0.046,-0.237 0.046,-0.342C0.046,-0.454 0.076,-0.544 0.137,-0.611C0.198,-0.678 0.281,-0.712 0.386,-0.712C0.482,-0.712 0.56,-0.679 0.619,-0.614C0.678,-0.549 0.708,-0.464 0.708,-0.359C0.708,-0.245 0.678,-0.154 0.617,-0.088C0.557,-0.021 0.476,0.012 0.374,0.012ZM0.38,-0.638C0.306,-0.638 0.247,-0.611 0.201,-0.558C0.155,-0.505 0.132,-0.435 0.132,-0.349C0.132,-0.263 0.154,-0.193 0.199,-0.141C0.244,-0.088 0.302,-0.062 0.374,-0.062C0.451,-0.062 0.511,-0.087 0.556,-0.137C0.6,-0.187 0.622,-0.257 0.622,-0.348C0.622,-0.44 0.601,-0.512 0.558,-0.562C0.515,-0.612 0.455,-0.638 0.38,-0.638Z" style="fill:white;fill-rule:nonzero;"/>
            </g>
        </g>
        <g transform="matrix(0.343164,0,0,0.258834,70.2434,487.536)">
            <g transform="matrix(56.8241,0,0,75.3378,958.903,790.418)">
                <path d="M0.594,0L0.496,0L0.379,-0.196C0.368,-0.215 0.358,-0.23 0.348,-0.243C0.338,-0.256 0.327,-0.266 0.317,-0.274C0.306,-0.283 0.295,-0.288 0.282,-0.292C0.27,-0.296 0.257,-0.298 0.241,-0.298L0.174,-0.298L0.174,0L0.092,0L0.092,-0.7L0.301,-0.7C0.331,-0.7 0.36,-0.696 0.385,-0.689C0.411,-0.681 0.434,-0.669 0.453,-0.654C0.472,-0.638 0.487,-0.619 0.498,-0.595C0.508,-0.572 0.514,-0.545 0.514,-0.514C0.514,-0.489 0.51,-0.467 0.503,-0.447C0.495,-0.426 0.485,-0.408 0.471,-0.392C0.458,-0.376 0.442,-0.363 0.423,-0.351C0.404,-0.34 0.382,-0.331 0.358,-0.325L0.358,-0.323C0.37,-0.318 0.38,-0.312 0.389,-0.305C0.398,-0.299 0.406,-0.291 0.414,-0.282C0.421,-0.273 0.429,-0.262 0.437,-0.251C0.444,-0.239 0.453,-0.226 0.462,-0.21L0.594,0ZM0.174,-0.626L0.174,-0.372L0.285,-0.372C0.306,-0.372 0.325,-0.375 0.342,-0.381C0.359,-0.388 0.375,-0.396 0.387,-0.408C0.4,-0.42 0.41,-0.434 0.417,-0.45C0.424,-0.467 0.428,-0.486 0.428,-0.507C0.428,-0.544 0.416,-0.573 0.391,-0.594C0.367,-0.615 0.332,-0.626 0.286,-0.626L0.174,-0.626Z" style="fill:white;fill-rule:nonzero;"/>
            </g>
        </g>
        <g transform="matrix(0.343164,0,0,0.258834,70.2434,487.536)">
            <g transform="matrix(56.8241,0,0,75.3378,992.892,790.418)">
                <path d="M0.806,0L0.724,0L0.724,-0.47C0.724,-0.507 0.726,-0.552 0.731,-0.606L0.729,-0.606C0.721,-0.574 0.714,-0.552 0.708,-0.538L0.469,0L0.429,0L0.19,-0.534C0.183,-0.55 0.176,-0.574 0.169,-0.606L0.167,-0.606C0.17,-0.578 0.171,-0.532 0.171,-0.469L0.171,0L0.092,0L0.092,-0.7L0.2,-0.7L0.415,-0.212C0.432,-0.174 0.442,-0.146 0.447,-0.128L0.45,-0.128C0.464,-0.166 0.475,-0.195 0.484,-0.214L0.703,-0.7L0.806,-0.7L0.806,0Z" style="fill:white;fill-rule:nonzero;"/>
            </g>
        </g>
        <g transform="matrix(0.343164,0,0,0.258834,70.2434,487.536)">
            <g transform="matrix(56.8241,0,0,75.3378,1043.92,790.418)">
                <path d="M0.634,0L0.543,0L0.469,-0.196L0.172,-0.196L0.102,0L0.011,0L0.279,-0.7L0.364,-0.7L0.634,0ZM0.442,-0.27L0.332,-0.568C0.328,-0.578 0.325,-0.594 0.321,-0.615L0.319,-0.615C0.316,-0.595 0.312,-0.58 0.308,-0.568L0.199,-0.27L0.442,-0.27Z" style="fill:white;fill-rule:nonzero;"/>
            </g>
        </g>
        <g transform="matrix(0.343164,0,0,0.258834,70.2434,487.536)">
            <g transform="matrix(56.8241,0,0,75.3378,1076.49,790.418)">
                <path d="M0.506,-0.626L0.304,-0.626L0.304,0L0.222,0L0.222,-0.626L0.02,-0.626L0.02,-0.7L0.506,-0.7L0.506,-0.626Z" style="fill:white;fill-rule:nonzero;"/>
            </g>
        </g>
        <g transform="matrix(0.343164,0,0,0.258834,70.2434,487.536)">
            <g transform="matrix(56.8241,0,0,75.3378,1106.26,790.418)">
                <rect x="0.092" y="-0.7" width="0.082" height="0.7" style="fill:white;fill-rule:nonzero;"/>
            </g>
        </g>
        <g transform="matrix(0.343164,0,0,0.258834,70.2434,487.536)">
            <g transform="matrix(56.8241,0,0,75.3378,1121.38,790.418)">
                <path d="M0.374,0.012C0.275,0.012 0.195,-0.021 0.135,-0.086C0.076,-0.152 0.046,-0.237 0.046,-0.342C0.046,-0.454 0.076,-0.544 0.137,-0.611C0.198,-0.678 0.281,-0.712 0.386,-0.712C0.482,-0.712 0.56,-0.679 0.619,-0.614C0.678,-0.549 0.708,-0.464 0.708,-0.359C0.708,-0.245 0.678,-0.154 0.617,-0.088C0.557,-0.021 0.476,0.012 0.374,0.012ZM0.38,-0.638C0.306,-0.638 0.247,-0.611 0.201,-0.558C0.155,-0.505 0.132,-0.435 0.132,-0.349C0.132,-0.263 0.154,-0.193 0.199,-0.141C0.244,-0.088 0.302,-0.062 0.374,-0.062C0.451,-0.062 0.511,-0.087 0.556,-0.137C0.6,-0.187 0.622,-0.257 0.622,-0.348C0.622,-0.44 0.601,-0.512 0.558,-0.562C0.515,-0.612 0.455,-0.638 0.38,-0.638Z" style="fill:white;fill-rule:nonzero;"/>
            </g>
        </g>
        <g transform="matrix(0.343164,0,0,0.258834,70.2434,487.536)">
            <g transform="matrix(56.8241,0,0,75.3378,1164.22,790.418)">
                <path d="M0.656,0L0.556,0L0.195,-0.558C0.186,-0.572 0.179,-0.587 0.173,-0.602L0.17,-0.602C0.173,-0.587 0.174,-0.555 0.174,-0.506L0.174,0L0.092,0L0.092,-0.7L0.198,-0.7L0.549,-0.151C0.563,-0.128 0.573,-0.112 0.577,-0.104L0.579,-0.104C0.576,-0.124 0.574,-0.159 0.574,-0.207L0.574,-0.7L0.656,-0.7L0.656,0Z" style="fill:white;fill-rule:nonzero;"/>
            </g>
        </g>
        <g transform="matrix(0.343164,0,0,0.258834,70.2434,487.536)">
            <g transform="matrix(56.8241,0,0,75.3378,345.824,787.31)">
                <path d="M0.376,0.012C0.276,0.012 0.194,-0.02 0.131,-0.085C0.068,-0.151 0.036,-0.236 0.036,-0.341C0.036,-0.451 0.068,-0.541 0.132,-0.609C0.196,-0.678 0.281,-0.712 0.387,-0.712C0.487,-0.712 0.568,-0.679 0.629,-0.614C0.691,-0.549 0.722,-0.462 0.722,-0.355C0.722,-0.245 0.69,-0.157 0.626,-0.089C0.624,-0.087 0.622,-0.084 0.62,-0.082C0.618,-0.08 0.616,-0.078 0.613,-0.076L0.791,0.094L0.57,0.094L0.477,0C0.446,0.008 0.413,0.012 0.376,0.012ZM0.383,-0.576C0.328,-0.576 0.284,-0.555 0.251,-0.514C0.218,-0.472 0.202,-0.417 0.202,-0.349C0.202,-0.28 0.218,-0.225 0.251,-0.185C0.284,-0.144 0.326,-0.124 0.379,-0.124C0.433,-0.124 0.476,-0.144 0.508,-0.183C0.54,-0.222 0.556,-0.277 0.556,-0.346C0.556,-0.418 0.541,-0.475 0.51,-0.516C0.479,-0.556 0.437,-0.576 0.383,-0.576Z" style="fill:white;fill-rule:nonzero;"/>
            </g>
        </g>
        <g transform="matrix(0.343164,0,0,0.258834,70.2434,487.536)">
            <g transform="matrix(56.8241,0,0,75.3378,399.095,789.959)">
                <path d="M0.651,-0.303C0.651,-0.093 0.553,0.012 0.357,0.012C0.167,0.012 0.072,-0.09 0.072,-0.296L0.072,-0.7L0.23,-0.7L0.23,-0.294C0.23,-0.181 0.274,-0.124 0.363,-0.124C0.45,-0.124 0.493,-0.179 0.493,-0.288L0.493,-0.7L0.651,-0.7L0.651,-0.303Z" style="fill:white;fill-rule:nonzero;"/>
            </g>
        </g>
        <g transform="matrix(0.343164,0,0,0.258834,70.2434,487.536)">
            <g transform="matrix(56.8241,0,0,75.3378,449.119,790.418)">
                <path d="M0.696,0L0.524,0L0.474,-0.156L0.225,-0.156L0.176,0L0.005,0L0.26,-0.7L0.447,-0.7L0.696,0ZM0.438,-0.277L0.363,-0.512C0.357,-0.53 0.353,-0.551 0.351,-0.575L0.347,-0.575C0.346,-0.555 0.341,-0.534 0.335,-0.514L0.259,-0.277L0.438,-0.277Z" style="fill:white;fill-rule:nonzero;"/>
            </g>
        </g>
        <g transform="matrix(0.343164,0,0,0.258834,70.2434,487.536)">
            <g transform="matrix(56.8241,0,0,75.3378,499.255,790.418)">
                <path d="M0.71,0L0.551,0L0.262,-0.44C0.245,-0.466 0.234,-0.485 0.227,-0.498L0.225,-0.498C0.228,-0.473 0.229,-0.436 0.229,-0.385L0.229,0L0.08,0L0.08,-0.7L0.25,-0.7L0.528,-0.274C0.541,-0.255 0.552,-0.236 0.563,-0.217L0.565,-0.217C0.562,-0.233 0.561,-0.265 0.561,-0.313L0.561,-0.7L0.71,-0.7L0.71,0Z" style="fill:white;fill-rule:nonzero;"/>
            </g>
        </g>
        <g transform="matrix(0.343164,0,0,0.258834,70.2434,487.536)">
            <g transform="matrix(56.8241,0,0,75.3378,554.329,790.418)">
                <path d="M0.572,-0.572L0.372,-0.572L0.372,0L0.214,0L0.214,-0.572L0.015,-0.572L0.015,-0.7L0.572,-0.7L0.572,-0.572Z" style="fill:white;fill-rule:nonzero;"/>
            </g>
        </g>
        <g transform="matrix(0.343164,0,0,0.258834,70.2434,487.536)">
            <g transform="matrix(56.8241,0,0,75.3378,597.805,789.959)">
                <path d="M0.651,-0.303C0.651,-0.093 0.553,0.012 0.357,0.012C0.167,0.012 0.072,-0.09 0.072,-0.296L0.072,-0.7L0.23,-0.7L0.23,-0.294C0.23,-0.181 0.274,-0.124 0.363,-0.124C0.45,-0.124 0.493,-0.179 0.493,-0.288L0.493,-0.7L0.651,-0.7L0.651,-0.303Z" style="fill:white;fill-rule:nonzero;"/>
            </g>
        </g>
        <g transform="matrix(0.343164,0,0,0.258834,70.2434,487.536)">
            <g transform="matrix(56.8241,0,0,75.3378,649.078,790.418)">
                <path d="M0.878,0L0.722,0L0.722,-0.419C0.722,-0.464 0.724,-0.514 0.728,-0.569L0.724,-0.569C0.716,-0.526 0.709,-0.495 0.702,-0.476L0.538,0L0.409,0L0.242,-0.471C0.238,-0.484 0.23,-0.516 0.22,-0.569L0.216,-0.569C0.22,-0.5 0.222,-0.439 0.222,-0.387L0.222,0L0.08,0L0.08,-0.7L0.311,-0.7L0.454,-0.285C0.465,-0.252 0.474,-0.219 0.479,-0.185L0.482,-0.185C0.491,-0.224 0.5,-0.257 0.51,-0.286L0.653,-0.7L0.878,-0.7L0.878,0Z" style="fill:white;fill-rule:nonzero;"/>
            </g>
        </g>
        <g transform="matrix(0.343164,0,0,0.258834,70.2434,487.536)">
            <g transform="matrix(0.320359,0,0,0.424734,166.783,667.203)">
                <g>
                    <g transform="matrix(1,0,0,1,-1.72563,1.59162e-12)">
                        <rect x="426.226" y="178" width="31" height="131" style="fill:white;"/>
                    </g>
                    <g transform="matrix(-1,0,0,1,682,1.02887e-11)">
                        <path d="M334,164L150,164C150,144.273 178.317,133 233.044,133C334,133 334,133 334,133L334,164Z" style="fill:white;"/>
                    </g>
                </g>
                <path d="M286,309L173.044,309C160.317,309 150,298.683 150,285.956L150,178L181,178L181,265.075C181,268.503 182.362,271.791 184.786,274.214C187.209,276.638 190.497,278 193.925,278L270.688,278L286,309Z" style="fill:white;"/>
                <path d="M334,164L150,164C150,144.273 183.317,133 233.044,133C334,133 334,133 334,133L334,164Z" style="fill:white;"/>
                <path d="M400,323L334,323L281.376,265.106L281.376,248.106L400,323ZM334,281.33L302,261.127L302,178L334,178L334,281.33Z" style="fill:white;"/>
            </g>
        </g>
    </g>
</svg>
