<?xml version="1.0" encoding="UTF-8" standalone="no"?>
<!DOCTYPE svg PUBLIC "-//W3C//DTD SVG 1.1//EN" "http://www.w3.org/Graphics/SVG/1.1/DTD/svg11.dtd">
<svg width="100%" height="100%" viewBox="0 0 354 451" version="1.1" xmlns="http://www.w3.org/2000/svg" xmlns:xlink="http://www.w3.org/1999/xlink" xml:space="preserve" xmlns:serif="http://www.serif.com/" style="fill-rule:evenodd;clip-rule:evenodd;stroke-linejoin:round;stroke-miterlimit:2;">
    <g transform="matrix(1,0,0,1,-1362.09,11.6156)">
        <g transform="matrix(1,0,0,1,87.7009,-164)">
            <g transform="matrix(1,0,0,1,1141.09,164)">
                <path d="M174.01,381.029L214.759,381.029C214.759,381.029 216.056,377.136 218.392,374.281C220.728,371.426 237.858,328.081 237.858,328.081L244.088,288.371L282.76,304.463L279.386,345.471L318.059,341.578C318.059,341.578 322.471,297.98 322.471,292.523C322.471,283.18 316.242,277.21 313.387,275.912C310.532,274.614 279.386,261.637 279.386,261.637L279.386,201.941C279.386,201.941 296.82,196.611 313.387,187.406C329.122,178.663 350.924,149.302 355.953,142.764C363.739,132.641 346.869,107.869 327.922,125.706C324.589,128.843 301.967,159.375 290.287,162.749C278.608,166.123 271.859,171.833 251.615,171.055C231.37,170.276 199.964,177.803 193.735,181.437C187.506,185.07 162.849,199.086 154.024,210.246C145.2,221.407 135.596,235.163 134.558,237.499C133.52,239.835 130.879,251.515 138.948,256.965C147.017,262.416 154.024,263.454 161.811,256.965C169.597,250.476 173.01,241.43 177.422,236.499C181.834,231.568 192.957,217.254 206.194,214.659C206.453,226.338 206.194,275.912 206.194,275.912L199.445,321.852L174.01,381.029Z" style="fill:rgb(71,8,154);"/>
            </g>
        </g>
        <g transform="matrix(1,0,0,1,87.7009,-164)">
            <g transform="matrix(1.28636,0,0,1.24783,1066.51,126.892)">
                <ellipse cx="246.372" cy="130.357" rx="28.55" ry="29.848" style="fill:rgb(71,8,154);"/>
            </g>
        </g>
        <g transform="matrix(1,0,0,1,87.7009,-164)">
            <g transform="matrix(1,0,0,1,1141.09,164)">
                <path d="M401.259,15.737C402.511,11.886 406.098,9.28 410.147,9.28C414.195,9.28 417.783,11.886 419.034,15.737C423.598,29.783 428.211,43.981 428.211,43.981C428.211,43.981 443.14,43.981 457.909,43.981C461.957,43.981 465.545,46.588 466.796,50.438C468.047,54.288 466.677,58.506 463.402,60.886C451.453,69.567 439.376,78.341 439.376,78.341C439.376,78.341 443.989,92.54 448.553,106.586C449.804,110.436 448.433,114.654 445.158,117.033C441.883,119.413 437.448,119.413 434.173,117.033C422.224,108.352 410.147,99.577 410.147,99.577C410.147,99.577 398.069,108.352 386.121,117.033C382.846,119.413 378.411,119.413 375.135,117.033C371.86,114.654 370.49,110.436 371.741,106.586C376.305,92.54 380.918,78.341 380.918,78.341C380.918,78.341 368.84,69.567 356.892,60.886C353.617,58.506 352.246,54.288 353.497,50.438C354.748,46.588 358.336,43.981 362.385,43.981C377.154,43.981 392.082,43.981 392.082,43.981C392.082,43.981 396.696,29.783 401.259,15.737Z" style="fill:rgb(71,8,154);"/>
            </g>
        </g>
        <g transform="matrix(1,0,0,1,87.7009,-164)">
            <g transform="matrix(1,0,0,1,1141.09,164)">
                <path d="M469.246,431.009C471.638,424.1 469.246,355.577 469.246,355.577C469.246,355.577 421.392,288.663 418.147,285.013C414.903,281.363 407.458,280.021 399.979,281.639C393.231,283.098 371.964,293.091 368.314,297.147C364.664,301.202 335.562,354.491 329.885,358.952C324.207,363.413 259.174,362.472 254.307,365.31C249.441,368.149 225.919,394.51 221.053,396.132C216.186,397.754 159.365,399.178 153.732,402.215C152.508,402.875 150.283,403.935 149.06,406.271C144.751,414.501 136.129,424.474 139.863,431.009C144.729,439.525 140.95,437.497 149.06,438.308C156.222,439.025 397.738,439.03 456.994,438.308C464.739,438.214 468.819,432.243 469.246,431.009Z" style="fill:rgb(71,8,154);"/>
            </g>
        </g>
    </g>
</svg>
