<svg xmlns="http://www.w3.org/2000/svg" 
    width="29.367"
    height="27.429" 
    iewBox="0 0 29.367 27.429"
    aria-hidden="true"
    fill="currentColor">
  <path d="M4.515-91.749v-.822A14.2,14.2,0,0,0,9.89-98.65a16.679,16.679,0,0,0,1.615-6.784q0-3.465-1.175-3.465h-3a4.719,4.719,0,0,1-3-1.821,5.655,5.655,0,0,1-1.116-3.524,4.4,4.4,0,0,1,1.586-3.7,5.854,5.854,0,0,1,3.7-1.233,6.316,6.316,0,0,1,3.877,1.322,8.919,8.919,0,0,1,2.79,3.7,13.424,13.424,0,0,1,1.028,5.374,18.13,18.13,0,0,1-3.172,10.19A17.534,17.534,0,0,1,4.515-91.749Zm16.387,0v-.822a14.3,14.3,0,0,0,5.257-6.167,16.962,16.962,0,0,0,1.615-6.7q0-3.465-1.233-3.465-.881,0-1.821.029a5.964,5.964,0,0,1-1.175-.029,4.806,4.806,0,0,1-2.966-1.821,5.557,5.557,0,0,1-1.145-3.524,4.347,4.347,0,0,1,1.645-3.671,5.922,5.922,0,0,1,3.7-1.263,6.759,6.759,0,0,1,5.58,2.937,11.979,11.979,0,0,1,2.232,7.459,18.13,18.13,0,0,1-3.172,10.19A17.534,17.534,0,0,1,20.9-91.749Z" transform="translate(-3.223 119.178)" 
  />
</svg>